<svg xmlns="http://www.w3.org/2000/svg" viewBox="0 0 1200 630" width="1200" height="630" role="img" aria-label="Loop Engineering cover">
  <defs>
    <linearGradient id="bg" x1="0" y1="0" x2="1" y2="1">
      <stop offset="0" stop-color="#0a0e1a"/>
      <stop offset="1" stop-color="#111827"/>
    </linearGradient>
    <linearGradient id="accent" x1="0" y1="0" x2="1" y2="1">
      <stop offset="0" stop-color="#38bdf8"/>
      <stop offset="0.55" stop-color="#818cf8"/>
      <stop offset="1" stop-color="#f472b6"/>
    </linearGradient>
    <filter id="glow" x="-50%" y="-50%" width="200%" height="200%">
      <feGaussianBlur stdDeviation="9"/>
    </filter>
  </defs>
  <rect width="1200" height="630" fill="url(#bg)"/>
  <g font-family="'Segoe UI', system-ui, -apple-system, Helvetica, Arial, sans-serif">
    <rect x="64" y="82" width="210" height="30" rx="15" fill="none" stroke="#818cf8" stroke-opacity="0.65"/>
    <text x="82" y="102" fill="#c7d2fe" font-size="13" font-weight="700" letter-spacing="2.2">AI WORKFLOW</text>
    <text x="62" y="220" fill="#f4f2ea" font-size="74" font-weight="800">Loop</text>
    <text x="62" y="304" fill="url(#accent)" font-size="82" font-weight="800">Engineering</text>
    <text x="66" y="364" fill="#aaa7b6" font-size="24" font-weight="500">Design the cycle, not just the prompt.</text>
  </g>
  <g font-family="'Segoe UI', system-ui, -apple-system, Helvetica, Arial, sans-serif">
    <circle cx="835" cy="310" r="160" fill="#818cf8" opacity="0.12" filter="url(#glow)"/>
    <path d="M835 150 A160 160 0 0 1 990 270" fill="none" stroke="url(#accent)" stroke-width="16" stroke-linecap="round"/>
    <path d="M990 270 l22 -3 -12 19" fill="none" stroke="#f472b6" stroke-width="12" stroke-linecap="round" stroke-linejoin="round"/>
    <path d="M995 350 A160 160 0 0 1 785 462" fill="none" stroke="url(#accent)" stroke-width="16" stroke-linecap="round"/>
    <path d="M785 462 l-8 21 -13 -18" fill="none" stroke="#38bdf8" stroke-width="12" stroke-linecap="round" stroke-linejoin="round"/>
    <path d="M680 352 A160 160 0 0 1 795 154" fill="none" stroke="url(#accent)" stroke-width="16" stroke-linecap="round"/>
    <path d="M795 154 l-20 -10 19 -10" fill="none" stroke="#38bdf8" stroke-width="12" stroke-linecap="round" stroke-linejoin="round"/>
    <rect x="750" y="190" width="170" height="62" rx="14" fill="#171922" stroke="#2b2d36"/>
    <rect x="910" y="308" width="178" height="62" rx="14" fill="#171922" stroke="#2b2d36"/>
    <rect x="645" y="390" width="178" height="62" rx="14" fill="#171922" stroke="#2b2d36"/>
    <text x="792" y="228" fill="#f4f2ea" font-size="20" font-weight="700">observe</text>
    <text x="953" y="346" fill="#f4f2ea" font-size="20" font-weight="700">adjust</text>
    <text x="696" y="428" fill="#f4f2ea" font-size="20" font-weight="700">rerun</text>
  </g>
</svg>
